<?xml version="1.0" encoding="utf-8"?>
<!-- Generator: Adobe Illustrator 18.1.1, SVG Export Plug-In . SVG Version: 6.00 Build 0)  -->
<!DOCTYPE svg PUBLIC "-//W3C//DTD SVG 1.1//EN" "http://www.w3.org/Graphics/SVG/1.1/DTD/svg11.dtd">
<svg version="1.1" id="Layer_1" xmlns="http://www.w3.org/2000/svg" xmlns:xlink="http://www.w3.org/1999/xlink" x="0px" y="0px"
	 viewBox="0 0 399.984 69.126" enable-background="new 0 0 399.984 69.126" xml:space="preserve">
<g>
	<g>
		<g>
			<g>
				<g>
					<path fill="#231F20" d="M110.248,39.726c0.756,5.544,4.031,8.567,9.155,8.567c3.192,0,5.46-1.092,7.056-3.611h12.095
						c-2.268,7.895-9.827,12.934-19.486,12.934c-12.515,0-20.831-8.567-20.831-21.334c0-12.683,8.483-21.418,20.747-21.418
						c8.567,0,15.035,4.283,18.059,11.927c1.428,3.528,2.015,7.308,2.015,12.935H110.248z M126.795,31.327
						c-0.504-4.788-3.276-7.392-7.895-7.392s-7.643,2.604-8.567,7.392H126.795z"/>
					<path fill="#231F20" d="M143.003,0.501h11.927v18.311c3.864-2.856,7.056-3.947,11.172-3.947
						c10.331,0,17.302,8.399,17.302,20.83c0,12.767-7.476,21.922-17.891,21.922c-5.04,0-7.895-1.512-11.087-5.711v4.62h-11.423
						V0.501z M154.426,36.198c0,7.056,3.444,11.759,8.651,11.759s8.568-4.536,8.568-11.591c0-7.308-3.276-11.843-8.568-11.843
						C157.87,24.523,154.426,29.227,154.426,36.198z"/>
					<path fill="#231F20" d="M193.145,56.525h-10.163l23.266-56.024h10.163L193.145,56.525z"/>
					<path fill="#231F20" d="M213.218,56.525h-10.163l23.266-56.024h10.163L213.218,56.525z"/>
				</g>
				<g>
					<path fill="#FFFFFF" d="M110.248,39.726c0.756,5.544,4.031,8.567,9.155,8.567c3.192,0,5.46-1.092,7.056-3.611h12.095
						c-2.268,7.895-9.827,12.934-19.486,12.934c-12.515,0-20.831-8.567-20.831-21.334c0-12.683,8.483-21.418,20.747-21.418
						c8.567,0,15.035,4.283,18.059,11.927c1.428,3.528,2.015,7.308,2.015,12.935H110.248z M126.795,31.327
						c-0.504-4.788-3.276-7.392-7.895-7.392s-7.643,2.604-8.567,7.392H126.795z"/>
					<path fill="#FFFFFF" d="M143.003,0.501h11.927v18.311c3.864-2.856,7.056-3.947,11.172-3.947
						c10.331,0,17.302,8.399,17.302,20.83c0,12.767-7.476,21.922-17.891,21.922c-5.04,0-7.895-1.512-11.087-5.711v4.62h-11.423
						V0.501z M154.426,36.198c0,7.056,3.444,11.759,8.651,11.759s8.568-4.536,8.568-11.591c0-7.308-3.276-11.843-8.568-11.843
						C157.87,24.523,154.426,29.227,154.426,36.198z"/>
					<path fill="#FFFFFF" d="M193.145,56.525h-10.163l23.266-56.024h10.163L193.145,56.525z"/>
					<path fill="#FFFFFF" d="M213.218,56.525h-10.163l23.266-56.024h10.163L213.218,56.525z"/>
				</g>
			</g>
			<path fill="#FFFFFF" d="M87.035,17.174L80.674,42.29h-0.156l-5.692-25.115H62.679L57.139,42.36h-0.151l-6.522-25.186H28.331
				l-7.347,25.337h-0.151l-7.342-25.337H0l10.039,27.058c0.75,2.103,3.226,8.097,3.226,10.2c0,2.697-2.174,4.348-5.107,4.348H3.739
				v10.346h5.998c8.62,0,13.204-1.047,16.269-9.592l13.326-36.715l10.384,33.268h12.888l6.069-25.87h0.146l6.159,25.87H87.87
				l12.138-38.913H87.035z"/>
		</g>
	</g>
	<g>
		<path fill="#FFFFFF" d="M259.586,8.331c-0.355-2.049-1.781-3.207-3.919-3.207c-2.896,0-4.454,2.182-4.454,6.102
			c0,4.142,1.559,6.325,4.498,6.325c2.272,0,3.52-1.158,4.009-3.697l6.146,0.312c-0.891,5.434-4.632,8.507-10.333,8.507
			c-6.548,0-10.689-4.365-10.689-11.269c0-7.126,4.098-11.402,10.912-11.402c5.612,0,9.442,3.207,9.844,8.329H259.586z"/>
		<path fill="#FFFFFF" d="M267.83,7.351c0.4-4.944,3.475-7.35,9.531-7.35c3.252,0,5.746,0.757,7.438,2.227
			c1.56,1.381,2.138,3.118,2.138,6.28v9.888c0,2.316,0.09,2.628,0.802,3.697h-6.458c-0.268-0.757-0.268-0.891-0.49-1.692
			c-2.093,1.737-3.607,2.271-6.146,2.271c-4.766,0-7.928-2.672-7.928-6.726s2.539-6.146,8.552-7.126l3.43-0.579
			c1.425-0.223,1.915-0.579,1.915-1.47c0-1.203-1.247-1.96-3.296-1.96c-2.316,0-3.563,0.802-3.831,2.539H267.83z M280.791,11.85
			c-0.668,0.267-1.247,0.445-2.315,0.668l-2.271,0.49c-2.272,0.535-3.252,1.292-3.252,2.583c0,1.425,1.203,2.271,3.207,2.271
			c2.094,0,3.607-0.891,4.632-2.717V11.85z"/>
		<path fill="#FFFFFF" d="M296.74,0.581l-0.178,3.831c1.247-3.474,2.851-4.454,7.438-4.41V5.97
			c-0.757-0.089-1.068-0.089-1.604-0.089c-2.182,0-3.964,0.98-4.676,2.583c-0.624,1.425-0.847,3.43-0.847,7.572v6.058h-6.325V0.581
			H296.74z"/>
		<path fill="#FFFFFF" d="M310.772,13.186c0.4,2.94,2.138,4.543,4.854,4.543c1.692,0,2.896-0.579,3.742-1.916h6.413
			c-1.202,4.187-5.211,6.859-10.333,6.859c-6.637,0-11.046-4.543-11.046-11.313c0-6.726,4.498-11.358,11.001-11.358
			c4.543,0,7.973,2.272,9.576,6.325c0.758,1.871,1.069,3.875,1.069,6.859H310.772z M319.547,8.731
			c-0.268-2.539-1.737-3.919-4.187-3.919c-2.45,0-4.054,1.381-4.543,3.919H319.547z"/>
		<path fill="#FFFFFF" d="M333.892,13.186c0.4,2.94,2.138,4.543,4.854,4.543c1.692,0,2.896-0.579,3.742-1.916h6.413
			c-1.202,4.187-5.211,6.859-10.333,6.859c-6.637,0-11.046-4.543-11.046-11.313c0-6.726,4.498-11.358,11.001-11.358
			c4.543,0,7.973,2.272,9.576,6.325c0.758,1.871,1.069,3.875,1.069,6.859H333.892z M342.667,8.731
			c-0.268-2.539-1.737-3.919-4.187-3.919c-2.45,0-4.054,1.381-4.543,3.919H342.667z"/>
		<path fill="#FFFFFF" d="M357.903,0.581l-0.178,3.831c1.247-3.474,2.851-4.454,7.438-4.41V5.97
			c-0.757-0.089-1.068-0.089-1.604-0.089c-2.182,0-3.964,0.98-4.677,2.583c-0.623,1.425-0.846,3.43-0.846,7.572v6.058h-6.325V0.581
			H357.903z"/>
		<path fill="#FFFFFF" d="M231.107,41.767c0.4-4.944,3.475-7.35,9.531-7.35c3.252,0,5.746,0.757,7.438,2.227
			c1.56,1.381,2.138,3.118,2.138,6.28v9.888c0,2.316,0.09,2.628,0.802,3.697h-6.458c-0.268-0.757-0.268-0.891-0.49-1.692
			c-2.093,1.737-3.607,2.271-6.146,2.271c-4.766,0-7.928-2.672-7.928-6.726s2.539-6.146,8.552-7.126l3.43-0.579
			c1.425-0.223,1.915-0.579,1.915-1.47c0-1.203-1.247-1.96-3.296-1.96c-2.316,0-3.563,0.802-3.831,2.539H231.107z M244.068,46.266
			c-0.668,0.267-1.247,0.445-2.315,0.668l-2.271,0.49c-2.272,0.535-3.252,1.292-3.252,2.583c0,1.425,1.203,2.271,3.207,2.271
			c2.094,0,3.607-0.891,4.632-2.717V46.266z"/>
		<path fill="#FFFFFF" d="M267.5,42.747c-0.355-2.049-1.781-3.207-3.919-3.207c-2.896,0-4.454,2.182-4.454,6.102
			c0,4.142,1.559,6.325,4.498,6.325c2.272,0,3.52-1.158,4.009-3.697l6.146,0.312c-0.891,5.434-4.632,8.507-10.333,8.507
			c-6.548,0-10.689-4.365-10.689-11.269c0-7.126,4.098-11.402,10.912-11.402c5.612,0,9.442,3.207,9.844,8.329H267.5z"/>
		<path fill="#FFFFFF" d="M275.744,41.767c0.4-4.944,3.475-7.35,9.531-7.35c3.252,0,5.746,0.757,7.438,2.227
			c1.56,1.381,2.138,3.118,2.138,6.28v9.888c0,2.316,0.09,2.628,0.802,3.697h-6.458c-0.268-0.757-0.268-0.891-0.49-1.692
			c-2.093,1.737-3.607,2.271-6.146,2.271c-4.766,0-7.928-2.672-7.928-6.726s2.539-6.146,8.552-7.126l3.43-0.579
			c1.425-0.223,1.915-0.579,1.915-1.47c0-1.203-1.247-1.96-3.296-1.96c-2.316,0-3.563,0.802-3.831,2.539H275.744z M288.705,46.266
			c-0.668,0.267-1.247,0.445-2.315,0.668l-2.271,0.49c-2.272,0.535-3.252,1.292-3.252,2.583c0,1.425,1.203,2.271,3.207,2.271
			c2.094,0,3.607-0.891,4.632-2.717V46.266z"/>
		<path fill="#FFFFFF" d="M318.818,56.51h-6.058v-2.316c-1.604,2.093-3.296,2.895-5.924,2.895c-5.656,0-9.442-4.499-9.442-11.313
			c0-6.859,3.83-11.402,9.62-11.402c2.316,0,3.965,0.668,5.479,2.227v-9.799h6.325V56.51z M303.63,45.731
			c0,3.786,1.781,6.236,4.543,6.236c2.717,0,4.543-2.495,4.543-6.147c0-3.83-1.781-6.325-4.543-6.325S303.63,41.945,303.63,45.731z"
			/>
		<path fill="#FFFFFF" d="M327.685,47.602c0.4,2.94,2.138,4.543,4.854,4.543c1.692,0,2.896-0.579,3.742-1.916h6.413
			c-1.202,4.187-5.211,6.859-10.333,6.859c-6.637,0-11.046-4.543-11.046-11.313c0-6.726,4.498-11.358,11.001-11.358
			c4.543,0,7.973,2.272,9.576,6.325c0.758,1.871,1.069,3.875,1.069,6.859H327.685z M336.46,43.147
			c-0.268-2.539-1.737-3.919-4.187-3.919c-2.45,0-4.054,1.381-4.543,3.919H336.46z"/>
		<path fill="#FFFFFF" d="M351.651,34.997v2.583c2.005-2.45,3.341-3.163,5.925-3.163c2.761,0,4.721,1.114,5.968,3.475
			c2.316-2.628,3.92-3.475,6.682-3.475c2.227,0,4.098,0.713,5.345,2.004c1.202,1.292,1.692,3.029,1.692,5.791V56.51h-6.325V44.662
			c0-3.296-0.979-4.766-3.162-4.766c-2.227,0-3.207,1.47-3.207,4.766V56.51h-6.324V44.662c0-3.296-0.98-4.766-3.207-4.766
			c-2.183,0-3.207,1.47-3.207,4.766V56.51h-6.325V34.997H351.651z"/>
		<path fill="#FFFFFF" d="M399.984,34.997l-7.483,21.691c-1.202,3.519-1.915,4.766-3.028,5.567c-1.024,0.757-2.45,1.069-4.811,1.069
			h-3.696v-4.766h1.87c2.228,0,3.252-0.846,3.252-2.717c0-0.757-0.045-0.891-0.802-2.762l-7.082-18.083h6.77l3.163,9.844
			c0.623,2.004,0.623,2.049,1.113,3.83l0.268,0.847c0.267-1.425,0.623-2.896,1.113-4.811l2.806-9.71H399.984z"/>
	</g>
</g>
</svg>
