<?xml version="1.0" encoding="utf-8"?>
<!-- Generator: Adobe Illustrator 19.0.0, SVG Export Plug-In . SVG Version: 6.00 Build 0)  -->
<!DOCTYPE svg PUBLIC "-//W3C//DTD SVG 1.1//EN" "http://www.w3.org/Graphics/SVG/1.1/DTD/svg11.dtd">
<svg version="1.1" id="Layer_1" xmlns="http://www.w3.org/2000/svg" xmlns:xlink="http://www.w3.org/1999/xlink" x="0px" y="0px"
	 viewBox="-73 88 75 75" style="enable-background:new -73 88 75 75;" xml:space="preserve">
<style type="text/css">
	.st0{fill:#FFFFFF;}
</style>
<path class="st0" d="M0.6,155l-29.5-29.5L0.6,96c1.8-1.8,1.8-4.8,0-6.6c-1.8-1.8-4.8-1.8-6.6,0l-29.5,29.5L-65,89.4
	c-1.8-1.8-4.8-1.8-6.6,0c-1.8,1.8-1.8,4.8,0,6.6l29.5,29.5L-71.6,155c-1.8,1.8-1.8,4.8,0,6.6s4.8,1.8,6.6,0l29.5-29.5L-6,161.6
	c1.8,1.8,4.8,1.8,6.6,0C2.5,159.8,2.5,156.8,0.6,155z"/>
</svg>
